/* XPM */
static char *_087154baf9b4f3ff04ae41ee4597f6aFsfN41eIC7xuAn1H[] = {
/* columns rows colors chars-per-pixel */
"64 64 208 2 ",
"   c None",
".  c black",
"X  c #010100",
"o  c #010101",
"O  c #000200",
"+  c #030200",
"@  c #030300",
"#  c #020202",
"$  c gray1",
"%  c #040200",
"&  c #000400",
"*  c #030600",
"=  c #040400",
"-  c #050500",
";  c #060400",
":  c #060500",
">  c #040600",
",  c #070600",
"<  c #040404",
"1  c gray2",
"2  c #0A0500",
"3  c #080700",
"4  c #0A0700",
"5  c #090800",
"6  c #0A0800",
"7  c #0A0900",
"8  c #0B0900",
"9  c #0C0800",
"0  c #0C0900",
"q  c #0C0A00",
"w  c #0D0A00",
"e  c #0D0B00",
"r  c #0D0C00",
"t  c #0E0C00",
"y  c #0F0C00",
"u  c #0F0D00",
"i  c #0F0F00",
"p  c #100D00",
"a  c #110D00",
"s  c #100E00",
"d  c #110F00",
"f  c #120E00",
"g  c #141000",
"h  c #141100",
"j  c #141200",
"k  c #151300",
"l  c #121700",
"z  c #161400",
"x  c #171700",
"c  c #181400",
"v  c #191600",
"b  c #1A1700",
"n  c #131800",
"m  c #171900",
"M  c #1A1800",
"N  c #1A1900",
"B  c #1B1900",
"V  c #1B1B00",
"C  c #1D1E00",
"Z  c #1C1F00",
"A  c #101010",
"S  c gray7",
"D  c gray8",
"F  c #181818",
"G  c #191919",
"H  c #201E00",
"J  c #232200",
"K  c #252400",
"L  c #292800",
"P  c #2A2A00",
"I  c #2D2B00",
"U  c #2C2C00",
"Y  c #2E2E00",
"T  c #322F00",
"R  c #323100",
"E  c #363300",
"W  c #373400",
"Q  c #3B3600",
"!  c #3D3800",
"~  c #3C3900",
"^  c #3D3900",
"/  c #3E3900",
"(  c #3F3A00",
")  c #3F3C00",
"_  c gray14",
"`  c #252525",
"'  c gray15",
"]  c #272727",
"[  c #282828",
"{  c gray16",
"}  c #2A2A2A",
"|  c #403C00",
" . c #423E00",
".. c #423F00",
"X. c #433F00",
"o. c #443E00",
"O. c #443F00",
"+. c #453F00",
"@. c #454000",
"#. c #464000",
"$. c #464100",
"%. c #474100",
"&. c #474300",
"*. c #484200",
"=. c #484300",
"-. c #494300",
";. c #494400",
":. c #4A4500",
">. c #4B4500",
",. c #4B4600",
"<. c #4C4700",
"1. c #4D4700",
"2. c #4C4800",
"3. c #4D4800",
"4. c #4E4800",
"5. c #4F4900",
"6. c #4F4A00",
"7. c #504B00",
"8. c #575100",
"9. c #5C5700",
"0. c #625B00",
"q. c #665E00",
"w. c #675F00",
"e. c #676000",
"r. c #6C6500",
"t. c #717171",
"y. c #747474",
"u. c gray47",
"i. c #7B7B7B",
"p. c #7E7E7E",
"a. c gray50",
"s. c #BCAE00",
"d. c #BFB100",
"f. c #C5B700",
"g. c #C8B900",
"h. c #CDBD00",
"j. c #D1C100",
"k. c #D3C200",
"l. c #D6C400",
"z. c #D6C500",
"x. c #D7C600",
"c. c #D7C700",
"v. c #D8C600",
"b. c #D9C700",
"n. c #D8C800",
"m. c #D9C800",
"M. c #D9C900",
"N. c #DAC800",
"B. c #DBC900",
"V. c #DCCA00",
"C. c #DDCB00",
"Z. c #DDCC00",
"A. c #DECC00",
"S. c #DECD00",
"D. c #DFCE00",
"F. c #E2CF00",
"G. c #E2D000",
"H. c #E3D000",
"J. c #E2D100",
"K. c #E3D100",
"L. c #E5D200",
"P. c #E5D300",
"I. c #E6D300",
"U. c #E6D400",
"Y. c #E7D500",
"T. c #E8D500",
"R. c #E8D600",
"E. c #E9D600",
"W. c #E9D700",
"Q. c #EAD700",
"!. c #EAD800",
"~. c #EBD800",
"^. c #ECD900",
"/. c #ECDA00",
"(. c #EFDC00",
"). c #F0DD00",
"_. c #F1DE00",
"`. c #F3E000",
"'. c #F5E200",
"]. c #F6E200",
"[. c #F7E300",
"{. c #FAE600",
"}. c #FBE600",
"|. c #FCE700",
" X c #FCE800",
".X c #FDE800",
"XX c #FEE900",
"oX c #FEEA00",
"OX c #FFEA00",
"+X c #FFEB00",
"@X c #FFEC00",
"#X c #FFED00",
"$X c #FFEE00",
"%X c #FFEF00",
"&X c #FFF000",
"*X c #FFF100",
"=X c #FFF200",
"-X c #FFF400",
";X c #808080",
":X c #818181",
">X c gray51",
",X c #848484",
"<X c gray52",
"1X c #868686",
"2X c #8E8E8E",
"3X c gray56",
"4X c gray57",
"5X c #929292",
/* pixels */
"                                                                                                                                ",
"                                                                                                                                ",
"                                                                                                                                ",
"                                                                                                                                ",
"                                                                                                                                ",
"                                                                                                                                ",
"                                                                                                                                ",
"                                                                                                                                ",
"                                                          . . . . . . . .                                                       ",
"                                                          t g p p p t g t                                                       ",
"                                                          . . . . . . . .                                                       ",
"                                                          &.>.&.-.;.;.>.&.                                                      ",
"                                                  . . 5 t f.S.M.b.b.b.C.f.t = = .                                               ",
"                                                  . = e . R.&X$X$X$X$X&X!.. e = .                                               ",
"                                                  . = 5 * L.$X|.oXoX|.$XL.* 5 = .                                               ",
"                                                  . % e . L.$XoXoXoXoX$XY.. 5 = .                                               ",
"                                                  . = e . L.$XoXoXoXoX$XY.. e = .                                               ",
"                                                  % 5 t * Y.$XoXoXoXoX$XY.= e 3 %                                               ",
"                                                  t f v = Y.$XoXoXoXoX$XL.= v f t                                               ",
"                                                  . . . P R.$XoXoXoXoX&XR.P . . .                                               ",
"                                          . t . +.j.L.H.L.{.oXoXoXoXoXoX{.L.F.L.j.&.. e .                                       ",
"                                          . p . >.).&X$X$XoXoXoXoXoXoX|.oX$X$X&X(.>.. p .                                       ",
"                                          . t . -.R.oX|.oX$X$X$X$X$X$X$X$XoXoXoXR.-.. t .                                       ",
"                                          . p . >.R.$XoX{.C.x.x.x.x.b.x.C.{.oX$X!.-.. p .                                       ",
"                                          . p . -.!.oX$XY.0.V E T T E V 0.R.oX$XR.-.. p .                 . . . . . . . .       ",
"                                          e v . >.!.oXoXH.3.. t . . e . 1.F.oXoXR.1.. v e                 < < < < < < < <       ",
"                                          . . . | R.$XoXH.3.. k 5 5 k . 3.H.$XoXR.| . . .                 . . . . . . . .       ",
"                                          X.1.~ q.^.$XoXH.3.. g . . p . 3.H.$XoX^.q.| 3.X.                ' ' _ ' ' ' ' '       ",
"                                  . t . ~ g.(.R.^.|.oX$XH.1.. p . . g . 3.H.$XoX|.^.R.^.g.~ . t . . . . G p.,X>X>X>X>X<Xy.S . . ",
"                                  . t . ~ M.&XoX$XoXoXoXH.3.. i . . t . 3.L.oXoXoXoX$X&XM.~ . t . . < . G <X5X2X3X3X2X5Xp.A < . ",
"                                  . t . ~ x.$XoXoXoXoX$XH.3.. t . . p . 3.H.$XoXoXoXoX$Xb.~ . t . . < . G <X5X2X3X3X2X5Xp.S . < ",
"                                  . t . ~ x.$XoXoXoX|.oXH.3.. g . . p . 3.L.oX|.oXoXoX$Xx.~ . t . . . . G y.>Xp.a.a.p.>Xt.D . . ",
"                                  . t . ~ x.$X|.oXoXoX$XH.3.. i . . t . 3.H.$XoXoXoX|.$Xx.~ . p .         } } } } } } } '       ",
"                                  5 h . ) b.$XoXoXoX|.oXH.3.. t . . g . 3.H.$XoXoXoXoX$Xb.) . k 5         . . . . . . . .       ",
"                                  . 3 . E x.$XoXoXoXoX$XH.3.. g . . g . 3.H.oXoXoXoXoX$Xx.E . 3 .         < < < < < < < <       ",
"                                  U R V 9.S.$XoXoXoXoX$XP.3.. i . . t . 3.H.oXoXoXoXoX$XC.9.V R U         . . . . . . . .       ",
"                          . % e * f.b.j.C.].oXoXoXoXoXoXH.3.. t . . g . 3.H.$XoXoXoXoXoX[.C.k.M.f.. e % . . . . .               ",
"                          . . h . R.&X$X$XoXoXoXoXoXoX$XP.3.. g . . t . 3.H.$XoXoXoXoXoX$X$X$X&XR.. f . . . . . .               ",
"                          . % p . H.$X{.oXoXoXoXoXoX|.oXH.3.. t . . p . 3.H.oXoXoXoXoXoXoXoX|.$XF.. p * . . . . .               ",
"                          . = p . H.$XoXoXoXoXoXoXoXoX$XH.3.. g . . p . 3.L.oXoXoXoXoXoXoXoXoX$XH.. p % . . . . .               ",
"                          . = p . H.$XoXoXoXoXoXoXoXoXoXL.3.. p . . g . 3.L.$XoXoXoXoXoXoXoXoX$XL.. p = .                       ",
"                          = 5 h . H.$XoXoXoXoXoXoXoXoXoXH.3.. k = = k . 3.H.oXoXoXoXoXoXoXoXoX$XH.. h 5 =                       ",
"                          . % p . H.&XoXoXoXoXoXoXoXoXoXH.>.. p . . t . 1.H.oXoXoXoXoXoXoXoXoX$XH.. p % .                       ",
"                          B B B Y Y.$XoXoXoXoXoXoXoXoXoXY.8.. H m k J . 8.L.$X|.oXoXoXoXoXoXoX$XY.U B B B                       ",
"                  . e . +.S.!.R.!.|.oXoXoXoXoXoXoXoXoXoX|.^.R.R.!.!.R.R.^.|.oXoXoXoXoXoXoXoXoXoX{.!.R.^.S.+.. e .               ",
"                  . p . -.].&X$X$XoXoXoXoXoXoXoXoXoXoXoXoX$X$XoX$X$X$XoX$XoXoXoXoXoXoXoXoXoXoXoXoX$X$X&X].-.. t .               ",
"                  . t . &.).oXoXoXoXoXoXoXoXoXoXoXoXoXoXoX$X$X$X$X$X$X$X$XoXoXoXoXoXoXoXoXoXoXoXoXoXoXoX_.&.. t .               ",
"                  . t . +._.oXoXoXoXoXoXoXoXoXoXoXoXoXoX{.C.x.b.x.x.x.x.C.{.oXoXoXoXoXoXoXoXoXoXoXoXoX$X_.-.. t .               ",
"                  . e . &._.oXoXoXoXoXoXoXoXoXoXoXoXoXoXY.q.U | ~ ~ X.U w.R.oXoXoXoXoXoXoXoXoXoXoXoXoXoX_.&.. t .               ",
"                  t B . -._.$XoXoXoXoXoXoXoXoXoXoXoXoX$XH.>.. e . . e . 1.F.$X|.oXoXoXoXoXoXoXoXoXoXoXoX_.>.. v t               ",
"                  . . . ! _.oXoXoXoXoXoXoXoXoXoXoXoXoXoXH.&.. . . . . . &.F.$XoXoXoXoXoXoXoXoXoXoXoXoX$X_.~ . . .               ",
"                  >.7.@.q.].oXoXoXoXoXoXoXoXoXoXoXoXoXoXY.r.X.3.2.3.3.X.r.L.oXoXoXoXoXoXoXoXoXoXoXoXoXoX`.e.X.7.>.              ",
"          . t . &.s.S.b.S.|.oXoXoXoXoXoXoXoXoXoXoXoXoXoX|.S.b.M.M.M.M.M.F.{.oXoXoXoXoXoXoXoXoXoXoXoXoXoX|.C.c.S.s.&.. t .       ",
"          . p . -.M.$XoX$XoXoXoXoXoXoXoXoXoXoXoXoXoXoXoXoXoX$X$X$XoX$XoXoXoXoXoXoXoXoXoXoXoXoXoXoXoXoXoXoXoXoX$XM.>.. p .       ",
"          . p . &.b.$XoXoX$XoXoX$XoXoX$X$XoXoXoX$XoX$XoX$XoXoXoX$XoXoXoXoX$XoX$XoX$X$XoX$XoXoXoXoX$XoX$XoX$XoX$Xb.&.. p .       ",
"          . t . +.h.]._._._._._._._._._._._._._._._._._._._._._._._._._._._._._._._._._._._._._._._._._._._._.].h.X.. t .       ",
"          . . . e Q -.&.&.&.&.+.-.&.&.&.&.+.-.-.+.&.&.-.+.&.&.-.&.+.-.&.+.-.&.+.-.&.+.-.&.+.-.&.+.&.&.-.&.&.&.>.Q e . . .       ",
"          . . . . . . . . . . . . . . . . . . . . . . . . . . . . . . . . . . . . . . . . . . . . . . . . . . . . . . . .       ",
"          . . . . 5 p t t t t t t t t p t e p p p t t t t t t t t t t t t t t t p p p p p t t t t t t t e e p p 5 . . . .       ",
"          . . . . . . . . . . . . . . . 5 K L L K = . . . . . . . . . . . . . . = K L L J 3 . . . . . . . . . . . . . . .       ",
"                                          V l m B                                 B n l V                                       ",
"                                          % e e 3                                 5 5 e 3                                       ",
"                                          = = = =                                 3 = = =                                       ",
"                                          . . . .                                 . . . .                                       "
};
