/* XPM */
static char *_1da8c1c9d794589da9a5c7e382d54e1OJcSrljhq6W8cnJs[] = {
/* columns rows colors chars-per-pixel */
"64 64 101 2 ",
"   c #040004",
".  c #080008",
"X  c #0F000F",
"o  c #120012",
"O  c #1D011D",
"+  c #240024",
"@  c #270027",
"#  c #2C002C",
"$  c #2F002F",
"%  c #310231",
"&  c #370037",
"*  c #390039",
"=  c #430243",
"-  c #470047",
";  c #440444",
":  c #4C004C",
">  c #4E004E",
",  c #540054",
"<  c #560056",
"1  c #550655",
"2  c #5C005C",
"3  c #5F005F",
"4  c #610061",
"5  c #650065",
"6  c #650965",
"7  c #6B006B",
"8  c #690469",
"9  c #680868",
"0  c #720072",
"q  c #750075",
"w  c #760C76",
"e  c #7B007B",
"r  c #7D007D",
"t  c #7E057E",
"y  c #790A79",
"u  c #820082",
"i  c #860086",
"p  c #880088",
"a  c #8F008F",
"s  c #8C0C8C",
"d  c #871087",
"f  c #910091",
"g  c #930093",
"h  c #900690",
"j  c #9C009C",
"k  c #9D009D",
"l  c #9D0E9D",
"z  c #951495",
"x  c #981298",
"c  c #A000A0",
"v  c #A700A7",
"b  c #A407A4",
"n  c #AB00AB",
"m  c #AC01AC",
"M  c #AF04AF",
"N  c #A31AA3",
"B  c #A619A6",
"V  c #A815A8",
"C  c #B005B0",
"Z  c #B409B4",
"A  c #B50AB5",
"S  c #B80DB8",
"D  c #B90DB9",
"F  c #B010B0",
"G  c #B21FB2",
"H  c #B41DB4",
"J  c #BC11BC",
"K  c #BD12BD",
"L  c #BF14BF",
"P  c #BA18BA",
"I  c #C015C0",
"U  c #C317C3",
"Y  c #C51AC5",
"T  c #C61BC6",
"R  c #C71BC7",
"E  c #C81DC8",
"W  c #C024C0",
"Q  c #C026C0",
"!  c #C522C5",
"~  c #CD21CD",
"^  c #CF24CF",
"/  c #CF2ACF",
"(  c #CC2DCC",
")  c #D025D0",
"_  c #D227D2",
"`  c #D62AD6",
"'  c #D82DD8",
"]  c #DA2EDA",
"[  c #D834D8",
"{  c #DA34DA",
"}  c #DC31DC",
"|  c #E337E3",
" . c #E438E4",
".. c #E43CE4",
"X. c #E93EE9",
"o. c #EC40EC",
"O. c #ED41ED",
"+. c #F045F0",
"@. c #F64AF6",
"#. c #F84CF8",
"$. c #FF53FF",
/* pixels */
"$.$.#. .) K m n n n n n n n n n n n n n n n n n n n n n n n n n n n n n n n n n n n n n n n n n n n n n n M I ` X.$.O.] T Z n n ",
"$.$.#. .) K m n n n n n n n n n n n n n n n n n n n n n n n n n n n n n n n n n n n n n n n n n n n n n m m I '  .$.O.] T C n n ",
"#.#.+.{ ! F k k c v n n n n n n n n n n n n n n n n n n n n n n n n n n n n n n n n n n n n n n n n n n n M I )  .@.../ P b k k ",
" . .{ Q B s q u f k n n n n n n n n n n n n n n n n n n n n n n n n n n n n n n n n n n n n n n n n n n m m K E `  .( G x t q 0 ",
") ) ! B d 9 > 5 e f v n n n n n n n n n n n n n n n n n n n n n n n n n n n n n n n n n n n n n n n n n n n Z L R ) G z w < > : ",
"K K F s 9 ; @ - 5 i v n n n n n n n n n n n n n n n n n n n n n n n n n n n n n n n n n n n n n n n n n n n C Z D K x y 1 % + + ",
"n n k q > @ . $ < r c n n n n n n n n n n n n n n n n n n n n n n n n n n n n n n n n n n n n n n n n n n n n n m m i 4 * o     ",
"n n c u 5 - $ > 7 p v n n n n n n n n n n n n n n n n n n n n n n n n n n n n n n n n n n n n n n n n n n n n n n m a 0 < & # # ",
"n n k a r 5 < 7 r f v n n n n n n n n n n n n n n n n n n n n n n n n n n n n n n n n n n n n n n n n n n n n n n n k i 7 2 < , ",
"n m m k f i r p g k n n n n n n n n n n n n n n n n n n n n n n n n n n n n n n n n n n n n n n n n n n n n n n n n c f f u e e ",
"n n n v v v c v m n n n n n n n n n n n n n n n n n n n n n n n n n n n n n n n n n n n n n n n n n n n n n n n n n n v v v v k ",
"n n n n n n n n m n n n n n n n n n n n n n n n n n n n n n n n n n n n n n n n n n n n n n n n n n n n n n n n n n n n n n n m ",
"n n n n n n n n n n n n n n n n n n n n n n n n n n n n n n n n n n n n n n n n n n n n n n n n n n n n n n n n n n n n n n n n ",
"n n n n n n n n n n n n n n n n n n n n n n n n n n n n n n n n n n n n n n n n n n n n n n n n n n n n n n n n n n n n n n n n ",
"n n n n n n n n n n n n n n n n n n n n n n n n n n n n n n n n n n n n n n n n n n n n n n n n n n n n n n n n n n n n n n n n ",
"n n n n n n n n n n n n n n n n n n n n n n n n n n n n n n n n n n n n n n n n n n n n n n n n n n n n n n n n n n n n n n n n ",
"n n n n n n n n n n n n n n n n n n n n n n n n n n n n n n n n n n n n n n n n n n n n n n n n n n n n n n n n n n n n n n n n ",
"n n n n n n n n n n n n n n n n n n n n n n n n n n n n n n n n n n n n n n n n n n n n n n n n n n n n n n n n n n n n n n n n ",
"n n n n n n n n n n n n n n n n n n n n n n n n n n n n n n n n n n n n n n n n n n n n n n n n n n n n n n n n n n n n n n n n ",
"n n n n n n n n n n n n n n n n n n n n n n n n n n n n n n n n n n n n n n n n n n n n n n n n n n n n n n n n n n n n n n n n ",
"n n n n n n n n n n n n n n n n n n n n n n n n n n n n n n n n n n n n n n n n n n n n n n n n n n n n n n n n n n n n n n n n ",
"n n n n n n n n n n n n n n n n n n n n n n n n n n n n n n n n n n n n n n n n n n n n n n n n n n n n n n n n n n n n n n n n ",
"n n n n n n n n n n n n n n n n n n n n n n n n n n n n n n n n n n n n n n n n n n n n n n n n n n n n n n n n n n n n n n n n ",
"n n n n n n n n n n n n n n n n n n n n n n n n n n n n n n n n n n n n n n n n n n n n n n n n n n n n n n n n n n n n n n n n ",
"n n n n n n n n n n n n n n n n n n n n n n n n n n n n n n n n n n n n n n n n n n n n n n n n n n n n n n n n n n n n n n n n ",
"n n n n n n n n n n n n n n n n n n n n n n n n n n n n n n n n n n n n n n n n n n n n n n n n n n n n n n n n n n n n n n n n ",
"n n n n n n n n n n n n n n n n n n n n n n n n n n n n n n n n n n n n n n n n n n n n n n n n n n n n n n n n n n n n n n n n ",
"n n n n n n n n n n n n n n n n n n n n n n n n n n n n n n n n n n n n n n n n n n n n n n n n n n n n n n n n n n n n n n n n ",
"n n n n n n n n n n n n n n n n n n n n n n n n n n n n n n n n n n n n n n n n n n n n n n n n n n n n n n n n n n n n n n n n ",
"n n n n n n n n n n n n n n n n n n n n n n n n n n n n n n n n n n n n n n n n n n n n n n n n n n n n n n n n n n n n n n n n ",
"n n n n n n n n n n n n n n n n n n n n n n n n n n n n n n n n n n n n n n n n n n n n n n n n n n n n n n n n n n n n n n n n ",
"n n n n n n n n n n n n n n n n n n n n n n n n n n n n n n n n n n n n n n n n n n n n n n n n n n n n n n n n n n n n n n n n ",
"n n n n n n n n n n n n n n n n n n n n n n n n n n n n n n n n n n n n n n n n n n n n n n n n n n n n n n n n n n n n n n n n ",
"n n n n n n n n n n n n n n n n n n n n n n n n n n n n n n n n n n n n n n n n n n n n n n n n n n n n n n n n n n n n n n n n ",
"n n n n n n n n n n n n n n n n n n n n n n n n n n n n n n n n n n n n n n n n n n n n n n n n n n n n n n n n n n n n n n n n ",
"n n n n n n n n n n n n n n n n n n n n n n n n n n n n n n n n n n n n n n n n n n n n n n n n n n n n n n n n n n n n n n n n ",
"n n n n n n n n n n n n n n n n n n n n n n n n n n n n n n n n n n n n n n n n n n n n n n n n n n n n n n n n n n n n n n n n ",
"n n n n n n n n n n n n n n n n n n n n n n n n n n n n n n n n n n n n n n n n n n n n n n n n n n n n n n n n n n n n n n n n ",
"n n n n n n n n n n n n n n n n n n n n n n n n n n n n n n n n n n n n n n n n n n n n n n n n n n n n n n n n n n n n n n n n ",
"n n n n n n n n n n n n n n n n n n n n n n n n n n n n n n n n n n n n n n n n n n n n n n n n n n n n n n n n n n n n n n n n ",
"n n n n n n n n n n n n n n n n n n n n n n n n n n n n n n n n n n n n n n n n n n n n n n n n n n n n n n n n n n n n n n n n ",
"n n n n n n n n n n n n n n n n n n n n n n n n n n n n n n n n n n n n n n n n n n n n n n n n n n n n n n n n n n n n n n n n ",
"n n n n n n n n n n n n n n n n n n n n n n n n n n n n n n n n n n n n n n n n n n n n n n n n n n n n n n n n n n n n n n n n ",
"n n n n n n n n n n n n n n n n n n n n n n n n n n n n n n n n n n n n n n n n n n n n n n n n n n n n n n n n n n n n n n n n ",
"n n n n n n n n n n n n n n n n n n n n n n n n n n n n n n n n n n n n n n n n n n n n n n n n n n n n n n n n n n n n n n n n ",
"n n n n n n n n n n n n n n n n n n n n n n n n n n n n n n n n n n n n n n n n n n n n n n n n n n n n n n n n n n n n n n n n ",
"n n n n n n n n n n n n n n n n n n n n n n n n n n n n n n n n n n n n n n n n n n n n n n n n n n n n n n n n n n n n n n n n ",
"n n n n n n n n n n n n n n n n n n n n n n n n n n n n n n n n n n n n n n n n n n n n n n n n n n n n n n n n n n n n n n n n ",
"n n n n n n n n n n n n n n n n n n n n n n n n n n n n n n n n n n n n n n n n n n n n n n n n n n n n n n n n n n n n n n n n ",
"n n n n n n n n n n n n n n n n n n n n n n n n n n n n n n n n n n n n n n n n n n n n n n n n n n n n n n n n n n n n n n n n ",
"n n n n n n n n n n n n n n n n n n n n n n n n n n n n n n n n n n n n n n n n n n n n n n n n n n n n n n n n n n n n n n n n ",
"n n n n n n n n n n n n n n n n n n n n n n n n n n n n n n n n n n n n n n n n n n n n n n n n n n n n n n n n n n n n n n n n ",
"n n n n n n n n n n n n n n n n n n n n n n n n n n n n n n n n n n n n n n n n n n n n n n n n n n n n n n m n n m m m n n n n ",
"M M M M n n n n n n n n n n n n n n n n n n n n n n n n n n n n n n n n n n n n n n n n n n n n n n n n n n m C m m M m m n n n ",
"U U L J Z M n n n n n n n n n n n n n n n n n n n n n n n n n n n n n n n n n n n n n n n n n n n n n n n n Z Z K I K D Z m n n ",
"` ` _ R L Z n n n n n n n n n n n n n n n n n n n n n n n n n n n n n n n n n n n n n n n n n n n n n n n n Z I ~ ` ~ I D M n n ",
"..o. .` E Z n n n n n n n n n n n n n n n n n n n n n n n n n n n n n n n n n n n n n n n n n n n n n n n n K ~ ]  .} ~ L C n n ",
"$.$.@. .^ K n n n n n n n n n n n n n n n n n n n n n n n n n n n n n n n n n n n n n n n n n n n n n n n M L `  .$.O.` T M n n ",
"o.o...( H x i f j k m n n n n n n n n n n n n n n n n n n n n n n n n n n n n n n n n n n n n n n n n n n M L ^ } O.{ W V h i p ",
"] ] _ G x y 4 0 u f n n n n n n n n n n n n n n n n n n n n n n n n n n n n n n n n n n n n n n n n n n n n Z U ^ ] W N d 8 4 2 ",
"T T P z w 1 * < 0 p v n n n n n n n n n n n n n n n n n n n n n n n n n n n n n n n n n n n n n n n n n n n Z D L R V d 6 = & & ",
"M Z b t 1 $ o & 2 u c n n n n n n n n n n n n n n n n n n n n n n n n n n n n n n n n n n n n n n n n n n n m M M Z f 8 ; O X X ",
"n n k 0 : +   # < r v n n n n n n n n n n n n n n n n n n n n n n n n n n n n n n n n n n n n n n n n n n n n n n n i 4 & X     ",
"n m k q : +   $ < e c n n n n n n n n n n n n n n n n n n n n n n n n n n n n n n n n n n n n n n n n n n n n n n n i 2 & .     "
};
